
        <svg xmlns="http://www.w3.org/2000/svg" xmlns:xlink="http://www.w3.org/1999/xlink" version="1.1" width="3175.6091085499106" 
        height="560.3567356574124" viewBox="0 0 3175.6091085499106 560.3567356574124">
			
			<g transform="scale(8.78045542749551) translate(10, 10)">
				<defs id="SvgjsDefs1291"></defs><g id="SvgjsG1292" featureKey="symbolFeature-0" transform="matrix(1.5981706361645698,0,0,1.5981706361645698,0,-3.661408750653452)" fill="#5c5470"><g xmlns="http://www.w3.org/2000/svg" display="none"><rect x="-182.596" y="-143.699" display="inline" fill="#5c5470" width="240.181" height="241.399"></rect></g><g xmlns="http://www.w3.org/2000/svg" display="none"><path display="inline" d="M32.005,29.713H-0.004L16,2.287L32.005,29.713z M1.738,28.713h28.524L16,4.271L1.738,28.713z    M26.667,26.671H5.334L16,8.394L26.667,26.671z M7.076,25.671h17.849L16,10.378L7.076,25.671z"></path><path display="inline" d="M21.696,24.091H10.304L16,14.248L21.696,24.091z M12.039,23.091h7.923L16,16.244L12.039,23.091z"></path></g><g xmlns="http://www.w3.org/2000/svg" display="none"><g display="inline"><polygon fill="#5c5470" points="15.796,7.81 27.179,27.481 4.413,27.481   "></polygon></g><g display="inline"><path fill="#5c5470" d="M16,3.28L0.867,29.213h30.266L16,3.28z M16,9.386l9.795,16.785H6.205L16,9.386z"></path><path d="M32.005,29.713H-0.004L16,2.287L32.005,29.713z M1.738,28.713h28.524L16,4.271L1.738,28.713z M26.667,26.671H5.334    L16,8.394L26.667,26.671z M7.076,25.671h17.849L16,10.378L7.076,25.671z"></path></g><g display="inline"><polygon fill="#5c5470" points="16,15.246 20.829,23.591 11.171,23.591   "></polygon><path d="M21.696,24.091H10.304L16,14.248L21.696,24.091z M12.039,23.091h7.923L16,16.244L12.039,23.091z"></path></g></g><g xmlns="http://www.w3.org/2000/svg" display="none"><g display="inline"><polygon fill="#5c5470" points="16,15.246 20.829,23.591 11.171,23.591   "></polygon></g><g display="inline"><path fill="#5c5470" d="M16,2.291L0,29.709h32L16,2.291z M16,8.747l10.357,17.746H5.643L16,8.747z"></path></g></g><g xmlns="http://www.w3.org/2000/svg"><g><polygon points="11.171,23.591 20.829,23.591 16,15.246   "></polygon><path d="M0,29.709h32L16,2.291L0,29.709z M5.643,26.493L16,8.747l10.357,17.746H5.643z"></path></g></g></g><g id="SvgjsG1293" featureKey="nameLeftFeature-0" transform="matrix(1.6905339348236397,0,0,1.6905339348236397,68.97135879454599,0.19490285557913012)" fill="#2a2438"><path d="M8.92 12.24 c1.48 0.4 2.88 1.72 2.88 3.66 c0 2.54 -1.6 4.1 -5.08 4.1 l-5.52 0 l0 -14 l5.22 0 c2.9 0 4.36 1.64 4.36 3.52 c0 1.48 -0.96 2.32 -1.86 2.72 z M6.14 8.56 l-2.02 0 l0 2.82 l2.02 0 c1.24 0 1.74 -0.58 1.74 -1.42 c0 -0.9 -0.58 -1.4 -1.74 -1.4 z M6.56 17.44 c1.6 0 2.32 -0.66 2.32 -1.9 c0 -1.06 -0.72 -1.8 -2.44 -1.8 l-2.32 0 l0 3.7 l2.44 0 z M26.66 6 l-5.32 8.04 l0 5.96 l-2.92 0 l0 -5.96 l-5.32 -8.04 l3.3 0 l3.48 5.4 l3.48 -5.4 l3.3 0 z M37.959999999999994 6 l0 2.68 l-3.48 0 l0 11.32 l-2.92 0 l0 -11.32 l-3.5 0 l0 -2.68 l9.9 0 z M42.879999999999995 17.32 l5.92 0 l0 2.68 l-6.32 0 l-2.52 0 l0 -14 l2.92 0 l5.74 0 l0 2.68 l-5.74 0 l0 2.96 l4.34 0 l0 2.64 l-4.34 0 l0 3.04 z M58.62 12.24 c1.48 0.4 2.88 1.72 2.88 3.66 c0 2.54 -1.6 4.1 -5.08 4.1 l-5.52 0 l0 -14 l5.22 0 c2.9 0 4.36 1.64 4.36 3.52 c0 1.48 -0.96 2.32 -1.86 2.72 z M55.839999999999996 8.56 l-2.02 0 l0 2.82 l2.02 0 c1.24 0 1.74 -0.58 1.74 -1.42 c0 -0.9 -0.58 -1.4 -1.74 -1.4 z M56.26 17.44 c1.6 0 2.32 -0.66 2.32 -1.9 c0 -1.06 -0.72 -1.8 -2.44 -1.8 l-2.32 0 l0 3.7 l2.44 0 z M70.36 5.800000000000001 c3.9 0 7.26 2.94 7.26 7.2 s-3.36 7.2 -7.26 7.2 s-7.26 -2.94 -7.26 -7.2 s3.36 -7.2 7.26 -7.2 z M70.36 17.46 c2.36 0 4.22 -1.86 4.22 -4.46 s-1.86 -4.46 -4.22 -4.46 s-4.22 1.86 -4.22 4.46 s1.86 4.46 4.22 4.46 z"></path></g><g id="SvgjsG1294" featureKey="nameRightFeature-0" transform="matrix(1.6905339348236397,0,0,1.6905339348236397,205.47851929743683,0.19490285557913012)" fill="#2a2438"><path d="M7.96 5.800000000000001 c3.44 0 7.08 2.98 7.08 7.2 s-3.64 7.2 -7.08 7.2 s-7.06 -2.98 -7.06 -7.2 s3.62 -7.2 7.06 -7.2 z M7.96 19.6 c3.1 0 6.5 -2.68 6.5 -6.6 s-3.4 -6.6 -6.5 -6.6 c-3.08 0 -6.48 2.68 -6.48 6.6 s3.4 6.6 6.48 6.6 z M26.4 20 l-6.36 -6.98 l-2.32 2.44 l0 4.54 l-0.58 0 l0 -14 l0.58 0 l0 8.68 l8.24 -8.68 l0.76 0 l-6.3 6.64 l6.72 7.36 l-0.74 0 z M43.06 6 l0 14 l-0.58 0 l0 -12.7 l-6.34 12.7 l-0.38 0 l-6.34 -12.72 l0 12.72 l-0.58 0 l0 -14 l0.58 0 l6.54 13.1 l6.52 -13.1 l0.58 0 z M56.88 20 l-1.78 -3.98 l-8.04 0 l-1.78 3.98 l-0.62 0 l6.26 -14 l0.3 0 l6.28 14 l-0.62 0 z M47.300000000000004 15.46 l7.56 0 l-3.78 -8.46 z M68.76 20 l-0.72 0 l-4.08 -5.38 c-0.2 0.02 -0.4 0.02 -0.6 0.02 l-3.68 0 l0 5.36 l-0.58 0 l0 -14 l4.26 0 c3.14 0 4.8 1.94 4.8 4.3 c0 2.08 -1.22 3.8 -3.56 4.24 z M59.68000000000001 14.04 l3.76 0 c2.52 0 4.14 -1.46 4.14 -3.74 c0 -2.32 -1.62 -3.72 -4.14 -3.72 l-3.76 0 l0 7.46 z M79.82000000000002 20 l-6.36 -6.98 l-2.32 2.44 l0 4.54 l-0.58 0 l0 -14 l0.58 0 l0 8.68 l8.24 -8.68 l0.76 0 l-6.3 6.64 l6.72 7.36 l-0.74 0 z"></path></g>
			</g>
		</svg>
	